<svg width="25" height="24" viewBox="0 0 25 24" fill="none" xmlns="http://www.w3.org/2000/svg">
<g clip-path="url(#clip0_2302_339)">
<path d="M19.009 16.617L23.292 20.899L21.877 22.314L17.595 18.031C16.0018 19.3082 14.02 20.0029 11.978 20C7.01003 20 2.97803 15.968 2.97803 11C2.97803 6.032 7.01003 2 11.978 2C16.946 2 20.978 6.032 20.978 11C20.9809 13.042 20.2862 15.0237 19.009 16.617ZM17.003 15.875C18.2721 14.5699 18.9809 12.8204 18.978 11C18.978 7.132 15.845 4 11.978 4C8.11003 4 4.97803 7.132 4.97803 11C4.97803 14.867 8.11003 18 11.978 18C13.7985 18.0029 15.5479 17.2941 16.853 16.025L17.003 15.875Z" fill="#8F8F8F"/>
</g>
<defs>
<clipPath id="clip0_2302_339">
<rect x="0.978027" width="24" height="24" rx="3" fill="white"/>
</clipPath>
</defs>
</svg>
